<?xml version="1.0" encoding="UTF-8"?>
<svg version="1.1" xmlns="http://www.w3.org/2000/svg" width="500" height="500">
<path d="M0 0 C2.57501693 3.86444324 2.28874361 7.91927655 2.265625 12.38671875 C2.26753845 13.2031636 2.2694519 14.01960846 2.27142334 14.86079407 C2.27278282 16.58810738 2.26910291 18.31543099 2.26074219 20.04272461 C2.2501081 22.66088428 2.26060954 25.27834697 2.2734375 27.89648438 C2.27211452 29.58073066 2.26954926 31.26497652 2.265625 32.94921875 C2.26967346 33.72142258 2.27372192 34.4936264 2.27789307 35.28923035 C2.20838899 43.52696259 0.4547311 50.66957707 -3.125 58.0625 C-3.93324219 59.75052734 -3.93324219 59.75052734 -4.7578125 61.47265625 C-5.37269531 62.72369141 -5.37269531 62.72369141 -6 64 C-6.66 64 -7.32 64 -8 64 C-8.24621094 64.7425 -8.49242187 65.485 -8.74609375 66.25 C-12.71495966 74.95430406 -23.2552264 80.15229381 -31.75 83.625 C-36.45621603 85.3112353 -41.35365637 86.25011274 -46.2421875 87.25390625 C-49.11835069 87.78641208 -49.11835069 87.78641208 -51 90 C-51.23382026 92.48027055 -51.36765062 94.88990783 -51.4375 97.375 C-52.02696246 109.88423539 -55.04919273 119.57378909 -62 130 C-62.66 130 -63.32 130 -64 130 C-64 130.66 -64 131.32 -64 132 C-65.3203125 133.21875 -65.3203125 133.21875 -67.125 134.5 C-67.70507812 134.9228125 -68.28515625 135.345625 -68.8828125 135.78125 C-74.70311058 139.13167989 -80.5410355 139.34949412 -87.078125 139.47851562 C-90.52492741 139.6133619 -92.90977237 139.95430029 -96.0078125 141.5234375 C-99.7013864 143.34611496 -102.86034613 143.33921657 -106.875 143.1875 C-107.56335938 143.17396484 -108.25171875 143.16042969 -108.9609375 143.14648438 C-110.64097001 143.1114837 -112.3205935 143.05768954 -114 143 C-114.32613281 142.27554688 -114.65226563 141.55109375 -114.98828125 140.8046875 C-116.86817701 136.64562608 -118.7424748 132.50617022 -120.8125 128.4375 C-122 126 -122 126 -122 124 C-122.66 124 -123.32 124 -124 124 C-124 123.34 -124 122.68 -124 122 C-124.66 122 -125.32 122 -126 122 C-126 121.34 -126 120.68 -126 120 C-126.7425 119.71125 -127.485 119.4225 -128.25 119.125 C-131 118 -131 118 -132.7578125 116.95703125 C-138.48579348 114.51216132 -145.97490174 115.14867453 -151.859375 116.8046875 C-159.33998295 120.17328425 -165.15941972 125.60928241 -168.34765625 133.21484375 C-169.04809251 135.32619462 -169.70569309 137.45250639 -170.30859375 139.59375 C-171 142 -171 142 -172 143 C-173.56547048 143.09326716 -175.13512772 143.11745582 -176.70336914 143.11352539 C-177.70433121 143.11344986 -178.70529327 143.11337433 -179.73658752 143.11329651 C-180.8251152 143.10813522 -181.91364288 143.10297394 -183.03515625 143.09765625 C-184.14354355 143.0962413 -185.25193085 143.09482635 -186.39390564 143.09336853 C-189.95013069 143.08775033 -193.50629383 143.07519475 -197.0625 143.0625 C-199.46679597 143.05748734 -201.87109292 143.05292403 -204.27539062 143.04882812 C-210.18361504 143.03777499 -216.0918031 143.02101917 -222 143 C-222.2719368 142.38212616 -222.5438736 141.76425232 -222.8240509 141.12765503 C-223.18222397 140.31708649 -223.54039703 139.50651794 -223.90942383 138.67138672 C-224.26386063 137.86788788 -224.61829742 137.06438904 -224.98347473 136.23654175 C-226.09695046 133.78669123 -227.3365549 131.45186443 -228.6875 129.125 C-230.09212652 126.69843158 -231.10681604 124.67955189 -232 122 C-232.66 122 -233.32 122 -234 122 C-234 121.34 -234 120.68 -234 120 C-234.886875 119.71125 -235.77375 119.4225 -236.6875 119.125 C-240 118 -240 118 -242.31640625 116.953125 C-249.01055937 114.57558008 -256.76709316 115.06555149 -263.1875 118 C-264.22970703 118.556875 -264.22970703 118.556875 -265.29296875 119.125 C-267 120 -267 120 -269 120 C-269 120.66 -269 121.32 -269 122 C-269.66 122 -270.32 122 -271 122 C-271 122.66 -271 123.32 -271 124 C-271.66 124 -272.32 124 -273 124 C-275.04000022 129.04781449 -276.95480494 134.14150149 -278.87890625 139.234375 C-280 142 -280 142 -281 143 C-286.0875218 143.51913488 -289.57864372 142.63300441 -294.10546875 140.55859375 C-297.66366287 137.63133714 -299.67360764 134.18657648 -300.34741211 129.67260742 C-300.466347 127.06089952 -300.45198442 124.48821972 -300.375 121.875 C-300.35775879 120.94864746 -300.34051758 120.02229492 -300.32275391 119.06787109 C-299.79377743 98.69340134 -299.79377743 98.69340134 -293.828125 92.3671875 C-288.99841775 88.75522695 -283.75556596 87.2333525 -277.9375 86 C-277.17034668 85.83193848 -276.40319336 85.66387695 -275.61279297 85.49072266 C-268.42970075 83.97523556 -261.18966647 82.93897424 -253.90600586 82.0390625 C-253.06303955 81.93078125 -252.22007324 81.8225 -251.3515625 81.7109375 C-250.60729004 81.62118652 -249.86301758 81.53143555 -249.09619141 81.43896484 C-246.77666075 80.95323038 -245.02703471 80.22329638 -243 79 C-242.67 78.34 -242.34 77.68 -242 77 C-241.34 77 -240.68 77 -240 77 C-240 76.34 -240 75.68 -240 75 C-239.34 75 -238.68 75 -238 75 C-238 74.34 -238 73.68 -238 73 C-237.34 73 -236.68 73 -236 73 C-235.7525 72.443125 -235.505 71.88625 -235.25 71.3125 C-233.77075182 68.57589087 -232.06532561 66.32349131 -230 64 C-229.34 64 -228.68 64 -228 64 C-227.773125 63.46375 -227.54625 62.9275 -227.3125 62.375 C-225.54429911 59.17539839 -223.46329797 56.70962777 -221 54 C-220.34 54 -219.68 54 -219 54 C-218.67 53.01 -218.34 52.02 -218 51 C-217.34 51 -216.68 51 -216 51 C-216 50.34 -216 49.68 -216 49 C-215.34 49 -214.68 49 -214 49 C-214 48.34 -214 47.68 -214 47 C-206.41785913 42.57958175 -199.4620234 42.42850582 -190.83984375 42.50390625 C-189.48181582 42.5037509 -188.12378746 42.50225601 -186.76576233 42.49949646 C-183.93405302 42.4981198 -181.10285472 42.51054727 -178.27124023 42.53344727 C-174.6612759 42.56185775 -171.05215729 42.55907767 -167.44213009 42.54635715 C-164.64263316 42.53936752 -161.84332808 42.54722595 -159.04385567 42.55961418 C-157.07204908 42.56625567 -155.10021535 42.56200929 -153.12840271 42.55751038 C-145.0001011 42.64260279 -137.21410701 43.04481412 -131 49 C-131 49.66 -131 50.32 -131 51 C-130.34 51 -129.68 51 -129 51 C-127.76448494 52.68066386 -126.61353171 54.42364751 -125.5 56.1875 C-121.01825032 63.09004877 -116.09853849 69.54011704 -111 76 C-110.36707031 76.91652344 -109.73414063 77.83304687 -109.08203125 78.77734375 C-106.47122196 81.56449288 -104.65471145 81.9340685 -100.9375 82.625 C-94.31706589 83.88525569 -94.31706589 83.88525569 -92 87 C-90.81024205 90.56927385 -90.87521845 93.79946972 -90.90234375 97.51171875 C-90.90446617 98.60405571 -90.90446617 98.60405571 -90.90663147 99.71846008 C-90.91222341 102.04151539 -90.92477438 104.36447388 -90.9375 106.6875 C-90.94251604 108.26367048 -90.94707877 109.83984248 -90.95117188 111.41601562 C-90.9621902 115.27738098 -90.97944926 119.13867408 -91 123 C-89.0722259 122.88901379 -87.14526129 122.76390477 -85.21875 122.6328125 C-83.6090332 122.53057373 -83.6090332 122.53057373 -81.96679688 122.42626953 C-77.42985298 121.77440119 -75.99840368 120.44816424 -73 117 C-69.03212368 111.27024099 -68.52400911 107.18018842 -68.5625 100.3125 C-68.36830676 91.88236439 -67.08566794 85.49224665 -63 78 C-62.57847656 77.16339844 -62.15695312 76.32679688 -61.72265625 75.46484375 C-58.49842333 69.26870919 -54.84438996 63.2992561 -51.25 57.3125 C-50.7657959 56.49700684 -50.2815918 55.68151367 -49.78271484 54.84130859 C-49.3233252 54.08543457 -48.86393555 53.32956055 -48.390625 52.55078125 C-47.7723584 51.52464722 -47.7723584 51.52464722 -47.14160156 50.4777832 C-46.76487305 49.99011475 -46.38814453 49.50244629 -46 49 C-45.34 49 -44.68 49 -44 49 C-43.71125 48.236875 -43.4225 47.47375 -43.125 46.6875 C-42 44 -42 44 -40 41 C-41.485 41.495 -41.485 41.495 -43 42 C-43 42.66 -43 43.32 -43 44 C-44.49609375 45.21875 -44.49609375 45.21875 -46.4375 46.5 C-49.22531847 48.2865363 -49.22531847 48.2865363 -51 51 C-51.66 51 -52.32 51 -53 51 C-53.24621094 51.52335937 -53.49242187 52.04671875 -53.74609375 52.5859375 C-55.362118 55.69716176 -57.20811056 58.65266916 -59.0625 61.625 C-61.66232273 65.73762591 -61.66232273 65.73762591 -64 70 C-64.66 70 -65.32 70 -66 70 C-66 70.66 -66 71.32 -66 72 C-68.25 71.9375 -68.25 71.9375 -71 71 C-77.04126881 63.26956063 -76.48782456 54.30548358 -76 45 C-75.47516529 41.94247667 -74.57461471 39.66171526 -73 37 C-72.52433594 36.19175781 -72.04867187 35.38351563 -71.55859375 34.55078125 C-63.75624485 22.4399427 -51.88625359 15.70668741 -38.25 11.9375 C-36.4856462 11.42719009 -34.72132329 10.91677339 -32.95703125 10.40625 C-31.30483712 9.93697291 -29.65250491 9.46818153 -28 9 C-20.45057132 6.82750254 -13.38158948 4.46870332 -6.33984375 0.953125 C-4 0 -4 0 0 0 Z M-208.9375 68.8125 C-212.18879644 72.976874 -215.53350917 77.01353555 -219 81 C-216.52343326 83.47656674 -215.09873958 83.24261023 -211.71868896 83.27105713 C-210.98410461 83.26700867 -210.24952026 83.26296021 -209.49267578 83.25878906 C-208.33144699 83.26404602 -208.33144699 83.26404602 -207.14675903 83.26940918 C-204.57951979 83.27823414 -202.0125547 83.27237358 -199.4453125 83.265625 C-197.66413317 83.26697171 -195.88295419 83.26891229 -194.10177612 83.27142334 C-190.36420195 83.27437586 -186.62672325 83.27007388 -182.88916016 83.26074219 C-178.09836766 83.24936408 -173.30779965 83.25589587 -168.51701546 83.26788712 C-164.83672395 83.27511636 -161.15648559 83.2728126 -157.47619247 83.26763153 C-155.70994922 83.26629713 -153.94370115 83.26793544 -152.17746353 83.27259064 C-149.70688367 83.27767151 -147.23666618 83.26992301 -144.76611328 83.25878906 C-144.03557739 83.26283752 -143.3050415 83.26688599 -142.55236816 83.27105713 C-138.87318212 83.24035109 -136.12712818 83.0312377 -133 81 C-139.57115447 69.09281894 -139.57115447 69.09281894 -149 60 C-150.60707758 59.88963464 -152.21858225 59.84088515 -153.8293457 59.82299805 C-154.83411453 59.81016281 -155.83888336 59.79732758 -156.87409973 59.78410339 C-157.96365463 59.77671646 -159.05320953 59.76932953 -160.17578125 59.76171875 C-161.85174629 59.74961113 -161.85174629 59.74961113 -163.56156921 59.73725891 C-165.92962081 59.72341054 -168.29769243 59.71269177 -170.66577148 59.70483398 C-174.28733138 59.68761963 -177.907979 59.64373872 -181.52929688 59.59960938 C-183.82811828 59.58948285 -186.12694745 59.58096662 -188.42578125 59.57421875 C-189.50926346 59.55671066 -190.59274567 59.53920258 -191.70906067 59.52116394 C-200.39015672 59.54620486 -203.67642374 61.98063206 -208.9375 68.8125 Z " fill="#F6F6F6" transform="translate(398,186)"/>
<path d="M0 0 C1.04565833 -0.00260775 2.09131665 -0.00521549 3.16866159 -0.00790226 C4.32127025 -0.00567154 5.47387891 -0.00344082 6.6614151 -0.0011425 C7.88284383 -0.00270249 9.10427257 -0.00426248 10.36271429 -0.00586975 C13.7592344 -0.0091761 17.15569948 -0.00797545 20.55221629 -0.00488353 C24.21278879 -0.00262689 27.87335638 -0.00611037 31.53392792 -0.00886345 C38.70744551 -0.01331729 45.88095265 -0.01234639 53.05447066 -0.00945081 C58.88294093 -0.00719527 64.71140826 -0.00688491 70.53987885 -0.00797462 C71.36843922 -0.00812786 72.19699959 -0.00828109 73.05066785 -0.00843897 C74.73370906 -0.00875868 76.41675026 -0.0090829 78.09979147 -0.00941156 C93.89316349 -0.01226522 109.68652971 -0.00898111 125.47990078 -0.00361119 C139.04044915 0.00085674 152.60098896 0.00008078 166.16153717 -0.00452995 C181.8972044 -0.00987772 197.63286655 -0.01199054 213.36853456 -0.00891769 C215.04549185 -0.00859913 216.72244914 -0.00828476 218.39940643 -0.00797462 C219.2245683 -0.00782035 220.04973017 -0.00766607 220.89989695 -0.00750712 C226.72345498 -0.00664258 232.54700979 -0.00810351 238.37056732 -0.01045418 C245.46453089 -0.01325461 252.55848338 -0.01250874 259.65244567 -0.00717343 C263.27402091 -0.00453973 266.89557767 -0.00352579 270.51715279 -0.00682259 C274.43740244 -0.01033738 278.35762163 -0.00614939 282.27787018 -0.0011425 C284.00678316 -0.00448858 284.00678316 -0.00448858 285.77062368 -0.00790226 C287.33911117 -0.00399064 287.33911117 -0.00399064 288.93928528 0 C289.84481093 0.00016235 290.75033658 0.0003247 291.6833024 0.00049198 C293.96964264 0.12584114 293.96964264 0.12584114 296.96964264 1.12584114 C299.11059279 3.80202882 299.05211771 5.97952395 298.71964264 9.25084114 C297.96964264 13.12584114 297.96964264 13.12584114 295.96964264 15.12584114 C292.92531931 16.16516299 290.08402778 16.25194847 286.88429356 16.25447559 C285.33556996 16.25931226 285.33556996 16.25931226 283.75555903 16.26424664 C282.05640735 16.26192374 282.05640735 16.26192374 280.32292938 16.25955391 C279.11839157 16.26181947 277.91385375 16.26408502 276.67281479 16.26641923 C273.3280232 16.27166072 269.98328531 16.27240305 266.63849342 16.27122486 C263.03175017 16.27102098 259.42501496 16.27653831 255.81827545 16.28128242 C248.75184302 16.28959206 241.68541893 16.2923374 234.61898202 16.2928948 C228.87636489 16.29336977 223.13375052 16.29542353 217.39113426 16.29859543 C201.1155229 16.30740245 184.83991813 16.31201467 168.56430436 16.31126495 C167.68671589 16.311225 166.80912743 16.31118504 165.90494537 16.31114388 C165.02628757 16.31110299 164.14762977 16.31106211 163.24234598 16.31101999 C148.99697571 16.31061339 134.75163185 16.32018632 120.50626922 16.33428224 C105.88488611 16.3486363 91.26351589 16.35555298 76.64212555 16.35468847 C68.43101539 16.35435618 60.21993293 16.35711693 52.00882912 16.36786652 C45.01887655 16.3769587 38.02896424 16.37915731 31.03900833 16.37235709 C27.47183854 16.36908553 23.90474604 16.36905806 20.33758354 16.37771034 C16.47279946 16.38698825 12.60812907 16.38081599 8.74333954 16.3730793 C7.61280248 16.37822286 6.48226542 16.38336643 5.31746966 16.38866585 C4.28237951 16.38406706 3.24728937 16.37946826 2.18083286 16.37473011 C0.84272323 16.37505616 0.84272323 16.37505616 -0.52241892 16.3753888 C-3.38366298 16.09068613 -5.46989191 15.43090027 -8.03035736 14.12584114 C-10.355718 10.63780019 -10.36493634 9.2244336 -10.03035736 5.12584114 C-9.21785736 2.81334114 -9.21785736 2.81334114 -8.03035736 1.12584114 C-5.05054034 0.1325688 -3.10951857 0.00055751 0 0 Z " fill="#EFEFEF" transform="translate(105.03035736083984,352.87415885925293)"/>
<path d="M0 0 C0.78375 0.680625 1.5675 1.36125 2.375 2.0625 C2.375 2.7225 2.375 3.3825 2.375 4.0625 C3.035 4.0625 3.695 4.0625 4.375 4.0625 C8.1225841 9.68387615 8.29391093 15.45674406 7.375 22.0625 C5.23366715 27.71781497 1.74818188 31.26396777 -3.625 34.0625 C-8.92080393 35.69197813 -13.99936143 35.59503677 -19.25 33.875 C-24.88988301 30.84617394 -28.41910264 27.09969279 -30.625 21.0625 C-31.61182115 14.58799051 -30.3964817 9.41029758 -26.625 4.0625 C-20.00518929 -3.45394214 -8.59320798 -5.42408163 0 0 Z " fill="#F5F6F5" transform="translate(158.625,312.9375)"/>
<path d="M0 0 C4.85534766 2.85608686 7.99164174 6.63946022 10.1875 11.875 C11.15917113 17.8077997 10.80970375 22.67817783 7.5625 27.8125 C4.74409588 31.43616243 2.51541563 34.09746322 -1.8125 35.875 C-8.04310853 36.57965215 -13.68640252 36.86473503 -19.4375 34.1875 C-24.5703155 29.18975859 -27.54011626 25.25255832 -28.125 18 C-27.98983222 12.49971122 -25.84771773 8.42782659 -22.8125 3.875 C-22.1525 3.875 -21.4925 3.875 -20.8125 3.875 C-20.8125 3.215 -20.8125 2.555 -20.8125 1.875 C-13.80544637 -1.78085407 -7.60977608 -2.2455077 0 0 Z " fill="#F1F2F1" transform="translate(264.8125,311.125)"/>
<path d="M0 0 C0 0.66 0 1.32 0 2 C-17.82 2 -35.64 2 -54 2 C-54 1.67 -54 1.34 -54 1 C-53.40753479 0.98969254 -52.81506958 0.97938507 -52.20465088 0.96876526 C-46.04029494 0.86061542 -39.87608265 0.74602421 -33.71191406 0.62768555 C-31.41116338 0.58436394 -29.11038112 0.54268687 -26.80957031 0.50268555 C-23.50315839 0.44491605 -20.196905 0.38124051 -16.890625 0.31640625 C-15.86132874 0.29969376 -14.83203247 0.28298126 -13.77154541 0.26576233 C-12.81085144 0.24581711 -11.85015747 0.22587189 -10.86035156 0.20532227 C-9.59460297 0.18200584 -9.59460297 0.18200584 -8.30328369 0.15821838 C-5.99734035 0.0725015 -5.99734035 0.0725015 -3.82122803 -0.57533264 C-2 -1 -2 -1 0 0 Z " fill="#A1A19F" transform="translate(267,268)"/>
<path d="M0 0 C0 0.66 0 1.32 0 2 C-5.61 2 -11.22 2 -17 2 C-17 1.67 -17 1.34 -17 1 C-14.54256214 0.63826036 -12.08441207 0.28531831 -9.625 -0.0625 C-8.57699219 -0.2181543 -8.57699219 -0.2181543 -7.5078125 -0.37695312 C-2.2265625 -1.11328125 -2.2265625 -1.11328125 0 0 Z " fill="#B5B4B4" transform="translate(267,268)"/>
<path d="M0 0 C0.33 0.66 0.66 1.32 1 2 C-0.09655288 3.31886772 -1.20253423 4.62990057 -2.3125 5.9375 C-2.92738281 6.66839844 -3.54226562 7.39929688 -4.17578125 8.15234375 C-6 10 -6 10 -9 11 C-9 10.34 -9 9.68 -9 9 C-8.34 9 -7.68 9 -7 9 C-7 8.34 -7 7.68 -7 7 C-6.34 7 -5.68 7 -5 7 C-5 6.34 -5 5.68 -5 5 C-4.34 5 -3.68 5 -3 5 C-2.690625 4.360625 -2.38125 3.72125 -2.0625 3.0625 C-1 1 -1 1 0 0 Z " fill="#B0AFAE" transform="translate(165,254)"/>
<path d="M0 0 C0 0.99 0 1.98 0 3 C-0.66 3.66 -1.32 4.32 -2 5 C-1.67 5.66 -1.34 6.32 -1 7 C-2.8125 8.5625 -2.8125 8.5625 -5 10 C-5.99 9.67 -6.98 9.34 -8 9 C-7.34 8.01 -6.68 7.02 -6 6 C-5.34 6 -4.68 6 -4 6 C-3.71125 5.38125 -3.4225 4.7625 -3.125 4.125 C-2 2 -2 2 0 0 Z " fill="#B3B2B1" transform="translate(174,244)"/>
<path d="M0 0 C1.44425619 5.23542869 0.56183798 8.82641169 -1 14 C-1.33 14 -1.66 14 -2 14 C-2.3690205 4.58997722 -2.3690205 4.58997722 0 0 Z " fill="#BEBEBB" transform="translate(130,320)"/>
<path d="M0 0 C-1.28519565 2.86697492 -2.57129254 4.97607712 -5 7 C-5.66 7 -6.32 7 -7 7 C-3.86206897 0 -3.86206897 0 0 0 Z " fill="#CBCBC9" transform="translate(138,313)"/>
<path d="M0 0 C0.66 0.33 1.32 0.66 2 1 C0.71937515 2.7074998 -0.61767557 4.37373596 -2 6 C-2.66 6 -3.32 6 -4 6 C-4.33 6.99 -4.66 7.98 -5 9 C-5.66 8.67 -6.32 8.34 -7 8 C-6.34 7.01 -5.68 6.02 -5 5 C-4.34 5 -3.68 5 -3 5 C-2.67 4.01 -2.34 3.02 -2 2 C-1.34 2 -0.68 2 0 2 C0 1.34 0 0.68 0 0 Z " fill="#ACACAB" transform="translate(182,235)"/>
<path d="M0 0 C0.33 0.99 0.66 1.98 1 3 C-0.65 4.65 -2.3 6.3 -4 8 C-4.66 7.67 -5.32 7.34 -6 7 C-4.02 4.69 -2.04 2.38 0 0 Z " fill="#B3B0B0" transform="translate(361,225)"/>
<path d="M0 0 C2 2 2 2 2.1953125 4.8203125 C2.16050781 6.45613281 2.16050781 6.45613281 2.125 8.125 C2.10695312 9.22070312 2.08890625 10.31640625 2.0703125 11.4453125 C2.04710937 12.28835938 2.02390625 13.13140625 2 14 C1.67 14 1.34 14 1 14 C0.93941406 13.30132812 0.87882813 12.60265625 0.81640625 11.8828125 C0.73261719 10.97273438 0.64882812 10.06265625 0.5625 9.125 C0.48128906 8.22007812 0.40007812 7.31515625 0.31640625 6.3828125 C0.13010715 3.98889139 0.13010715 3.98889139 -1 2 C-0.67 1.34 -0.34 0.68 0 0 Z " fill="#B0B0AF" transform="translate(164,321)"/>
</svg>
